# xmcd
#
# Track frame offsets:
#       182
#       17882
#       30792
#       43765
#       61342
#       81010
#       96285
#       109185
#       121560
#       147540
#       159112
#       172190
#       189800
#       204297
#
# Disc length: 2963 seconds
#
# Revision: 0
# Processed by: cddbd v1.5.1PL0 Copyright (c) Steve Scherf et al.
# Submitted via: WhereIsIt 3.26
#
DISCID=aa0b910e
DTITLE=Veslari - Country rodeo
DYEAR=1900
DGENRE=
TTITLE0=Az raz prides k nam
TTITLE1=Country rodeo
TTITLE2=Piesen kopyt
TTITLE3=Mam par snov
TTITLE4=V dialke v horach
TTITLE5=Chlapec a diabol
TTITLE6=Vychodna
TTITLE7=IV.cenova
TTITLE8=Dedove husle
TTITLE9=Ruz
TTITLE10=Zastan na chvilu
TTITLE11=Mama, chybas nam
TTITLE12=Country Bal
TTITLE13=Mame pane krasny den
EXTD=Veslari - Country rodeo\nUMG records 1993
EXTT0=
EXTT1=
EXTT2=
EXTT3=
EXTT4=
EXTT5=
EXTT6=
EXTT7=
EXTT8=
EXTT9=
EXTT10=
EXTT11=
EXTT12=
EXTT13=
PLAYORDER=
